# xmcd CD database file
#
# Track frame offsets:
#	150
#	68009
#	81184
#	98976
#	165308
#	192565
#	217065
#	248619
#	273973
#	296007
#	320617
#
# Disc length: 4515 seconds
#
# Revision: 0
# Processed by: cddbd v1.5.2PL0 Copyright (c) Steve Scherf et al.
# Submitted via: CDex 1.75
#
DISCID=9f11a10b
DTITLE=Yusef Lateef - Four Classic Albums CD2
DYEAR=2014
DGENRE=Jazz
TTITLE0=Morning
TTITLE1=Brazil
TTITLE2=Let every soul say amen
TTITLE3=Woody and you
TTITLE4=Revelation
TTITLE5=Apathy
TTITLE6=Every day (i fall in love)
TTITLE7=The centaur and the phoenix
TTITLE8=Iqbal
TTITLE9=Summer song
TTITLE10=The philanthropist
EXTD=YEAR: 2014
EXTT0=
EXTT1=
EXTT2=
EXTT3=
EXTT4=
EXTT5=
EXTT6=
EXTT7=
EXTT8=
EXTT9=
EXTT10=
PLAYORDER=
